<svg xmlns="http://www.w3.org/2000/svg" viewBox="0 0 79.2 64.08"><defs><style>.cls-1{fill:#fff;}</style></defs><title>Asset 4</title><g id="Layer_2" data-name="Layer 2"><g id="Layer_1-2" data-name="Layer 1"><path class="cls-1" d="M.24,64.32q0-32,0-64.08h79.2q0,32,0,64.08ZM30.09,50.79a4.84,4.84,0,0,0,3.68,2.08c4.16.49,8.31,1.08,12.43,1.82a5.28,5.28,0,0,0,4.66-1c5.71-4.62,11.48-9.17,17.22-13.76a3.58,3.58,0,0,0,1.35-3.63c-.46-2.47-1-4.93-1.47-7.39-.55-2.79-1-3.19-3.81-3.48-1.69-.17-3.37-.44-4.85-.64-.67-3.62-1.29-7-1.92-10.43a2.49,2.49,0,0,0-2.48-2.16c-1.67-.17-3.33-.39-5-.63C47,11.13,44.45,11.2,42,13.4c-5,4.46-10.2,8.6-15.32,12.88A7.86,7.86,0,0,0,24.87,28,18,18,0,0,1,20.4,32.9c-4.76,3.71-9.07,7.79-11.46,13.55-1.09,2.64-.53,3.81,2.26,4.18,4.63.61,9.25,1.27,13.85,2a4.41,4.41,0,0,0,3.79-.92C29.2,51.45,29.59,51.17,30.09,50.79Z" transform="translate(-0.24 -0.24)"/><path d="M30.09,50.79c-.5.38-.89.65-1.26,1a4.41,4.41,0,0,1-3.79.92c-4.6-.77-9.22-1.43-13.85-2-2.79-.37-3.36-1.55-2.26-4.18,2.39-5.76,6.7-9.84,11.46-13.55A18,18,0,0,0,24.87,28a7.86,7.86,0,0,1,1.81-1.69C31.81,22,37,17.85,42,13.4c2.44-2.2,5-2.27,7.9-1.85,1.66.24,3.32.46,5,.63a2.49,2.49,0,0,1,2.48,2.16c.63,3.41,1.26,6.81,1.92,10.43,1.48.2,3.16.47,4.85.64,2.79.28,3.26.69,3.81,3.48.49,2.46,1,4.92,1.47,7.39a3.58,3.58,0,0,1-1.35,3.63c-5.73,4.59-11.5,9.14-17.22,13.76a5.28,5.28,0,0,1-4.66,1c-4.12-.74-8.27-1.32-12.43-1.82A4.84,4.84,0,0,1,30.09,50.79Zm9.66-14.47A4.88,4.88,0,0,0,40.3,36q7.28-6,14.54-11.93c.26-.21.59-.61.54-.86-.31-1.81-.72-3.6-1.09-5.41a1.75,1.75,0,0,0-.32.09c-4.9,4-9.81,7.93-14.67,11.95a2.14,2.14,0,0,0-.58,1.68C38.95,33.09,39.37,34.63,39.75,36.32ZM50,49.63c.58-.37,1-.58,1.36-.87,1.37-1.1,2.7-2.25,4.07-3.35,2.93-2.35,5.87-4.68,8.79-7,.88-.71,1.83-1.46,1.53-2.76-.34-1.5-.81-3-1.24-4.47a.83.83,0,0,0-.3.09c-4.85,4-9.71,7.93-14.52,11.95a1.91,1.91,0,0,0-.56,1.45C49.29,46.22,49.63,47.78,50,49.63ZM31.77,26.9c3.87,1.19,4.18,1.13,7-1.23l8.88-7.32c1.09-.9,2.15-1.82,3.49-3-1.37-.11-2.39-.15-3.4-.29a4,4,0,0,0-3.57,1.21c-1.75,1.64-3.63,3.14-5.45,4.69ZM41.88,40.43c1.54.23,2.73.49,3.94.56a2.28,2.28,0,0,0,1.4-.55c4.45-3.58,8.87-7.2,13.31-10.79a3.35,3.35,0,0,1,1-.36l-.45-.62a33.72,33.72,0,0,0-3.76-.3,3.52,3.52,0,0,0-2,.71c-2.63,2.15-5.17,4.4-7.76,6.6C45.79,37.2,44,38.68,41.88,40.43Zm-29,6.71,11.67,1.71c-.38-2-.67-3.86-1.1-5.66a1.58,1.58,0,0,0-1.12-.87c-1.89-.26-3.8-.42-5.71-.55a1.23,1.23,0,0,0-1,.42C14.69,43.76,13.83,45.37,12.85,47.14ZM36,37.57c.07-.29.19-.49.16-.67-.32-1.6-.6-3.22-1.05-4.78a1.83,1.83,0,0,0-1.22-.91c-1.16-.27-2.36-.37-3.55-.54-2.72-.4-2.71-.4-4,2.09-.53,1-1.1,2-1.69,3.14ZM34.9,49.25,46.62,51c-.45-2.1-.82-3.93-1.27-5.74a1.22,1.22,0,0,0-.8-.76c-1.74-.23-3.49-.35-5.23-.54a1.74,1.74,0,0,0-1.92.86C36.61,46.22,35.81,47.63,34.9,49.25ZM28,47.79c2.56-2.2,5.3-3.87,7.33-6.61l-5.61-1a2.16,2.16,0,0,0-2.61,2.4C27.31,44.27,27.65,45.9,28,47.79Z" transform="translate(-0.24 -0.24)"/><path class="cls-1" d="M39.75,36.32c-.38-1.69-.8-3.23-1-4.79a2.14,2.14,0,0,1,.58-1.68c4.86-4,9.77-8,14.67-11.95a1.75,1.75,0,0,1,.32-.09c.38,1.81.78,3.6,1.09,5.41,0,.25-.29.65-.54.86Q47.59,30.06,40.3,36A4.88,4.88,0,0,1,39.75,36.32Z" transform="translate(-0.24 -0.24)"/><path class="cls-1" d="M50,49.63c-.33-1.85-.68-3.41-.86-5a1.91,1.91,0,0,1,.56-1.45c4.82-4,9.67-8,14.52-11.95a.83.83,0,0,1,.3-.09c.42,1.5.9,3,1.24,4.47.29,1.31-.66,2.06-1.53,2.76-2.92,2.35-5.87,4.68-8.79,7-1.37,1.1-2.7,2.24-4.07,3.35C51,49,50.55,49.26,50,49.63Z" transform="translate(-0.24 -0.24)"/><path class="cls-1" d="M31.77,26.9l7-5.9c1.83-1.55,3.71-3,5.45-4.69a4,4,0,0,1,3.57-1.21c1,.14,2,.18,3.4.29-1.33,1.13-2.4,2.06-3.49,3l-8.88,7.32C36,28,35.64,28.09,31.77,26.9Z" transform="translate(-0.24 -0.24)"/><path class="cls-1" d="M41.88,40.43c2.1-1.75,3.91-3.23,5.7-4.75,2.59-2.2,5.14-4.45,7.76-6.6a3.52,3.52,0,0,1,2-.71,33.72,33.72,0,0,1,3.76.3l.45.62a3.35,3.35,0,0,0-1,.36c-4.44,3.59-8.86,7.21-13.31,10.79a2.28,2.28,0,0,1-1.4.55C44.61,40.91,43.42,40.66,41.88,40.43Z" transform="translate(-0.24 -0.24)"/><path class="cls-1" d="M12.85,47.14c1-1.77,1.83-3.38,2.76-4.95a1.23,1.23,0,0,1,1-.42c1.91.13,3.81.29,5.71.55a1.58,1.58,0,0,1,1.12.87c.44,1.8.73,3.63,1.1,5.66Z" transform="translate(-0.24 -0.24)"/><path class="cls-1" d="M36,37.57,24.65,35.9c.59-1.1,1.16-2.11,1.69-3.14,1.27-2.48,1.26-2.49,4-2.09,1.18.17,2.39.27,3.55.54a1.83,1.83,0,0,1,1.22.91c.45,1.56.73,3.18,1.05,4.78C36.18,37.08,36.07,37.28,36,37.57Z" transform="translate(-0.24 -0.24)"/><path class="cls-1" d="M34.9,49.25c.91-1.62,1.71-3,2.5-4.46a1.74,1.74,0,0,1,1.92-.86c1.74.18,3.49.3,5.23.54a1.22,1.22,0,0,1,.8.76c.45,1.81.82,3.65,1.27,5.74Z" transform="translate(-0.24 -0.24)"/><path class="cls-1" d="M28,47.79c-.33-1.89-.67-3.52-.89-5.17a2.16,2.16,0,0,1,2.61-2.4l5.61,1C33.28,43.93,30.54,45.6,28,47.79Z" transform="translate(-0.24 -0.24)"/></g></g></svg>