<?xml version="1.0" encoding="utf-8"?>
<!-- Generator: Adobe Illustrator 17.0.0, SVG Export Plug-In . SVG Version: 6.00 Build 0)  -->
<!DOCTYPE svg PUBLIC "-//W3C//DTD SVG 1.1//EN" "http://www.w3.org/Graphics/SVG/1.1/DTD/svg11.dtd">
<svg version="1.1" id="Layer_1" xmlns="http://www.w3.org/2000/svg" xmlns:xlink="http://www.w3.org/1999/xlink" x="0px" y="0px"
	 width="19.709px" height="18.114px" viewBox="0 0 19.709 18.114" enable-background="new 0 0 19.709 18.114" xml:space="preserve">
<g>
	<path d="M0,4.81v11.826c0,0.816,0.662,1.478,1.478,1.478h16.753c0.816,0,1.478-0.662,1.478-1.478V4.81H0z M11.333,16.143H1.478
		V6.781h9.855V16.143z M17.738,16.143h-4.435V6.781h4.435V16.143z"/>
	<rect x="3.043" y="8.339" width="6.726" height="6.246"/>
	<path d="M18.231-0.117H1.478C0.662-0.117,0,0.545,0,1.361v1.971h19.709V1.361C19.709,0.545,19.048-0.117,18.231-0.117z
		 M2.464,2.593c-0.544,0-0.985-0.441-0.985-0.985s0.441-0.985,0.985-0.985s0.985,0.441,0.985,0.985S3.008,2.593,2.464,2.593z
		 M18.231,2.346H9.855V0.868h8.377V2.346z"/>
	<rect x="14.78" y="12.363" width="1.639" height="2.732"/>
	<rect x="14.78" y="7.992" width="1.639" height="2.732"/>
</g>
</svg>
