<?xml version="1.0" encoding="utf-8"?>
<!-- Generator: Adobe Illustrator 17.0.0, SVG Export Plug-In . SVG Version: 6.00 Build 0)  -->
<!DOCTYPE svg PUBLIC "-//W3C//DTD SVG 1.1//EN" "http://www.w3.org/Graphics/SVG/1.1/DTD/svg11.dtd">
<svg version="1.1" id="Layer_1" xmlns="http://www.w3.org/2000/svg" xmlns:xlink="http://www.w3.org/1999/xlink" x="0px" y="0px"
	 width="55.52px" height="79.729px" viewBox="0 0 55.52 79.729" enable-background="new 0 0 55.52 79.729" xml:space="preserve">
<g>
	<path fill="none" stroke="#000000" stroke-width="2" stroke-miterlimit="10" d="M16.234,66.33h23.43
		c0.039-0.675,0.088-1.465,0.148-2.331H16.086C16.146,64.865,16.195,65.656,16.234,66.33L16.234,66.33z M16.234,66.33"/>
	<path fill="none" stroke="#000000" stroke-width="2" stroke-miterlimit="10" d="M30.72,60.922V46.176
		c0-0.35,0.102-0.692,0.295-0.986l2.705-4.116v-7.62c0-0.83-0.524-1.566-1.31-1.835l-0.438-0.134l-2.947,2.205
		c-0.637,0.478-1.514,0.478-2.153,0l-2.947-2.205l-0.438,0.134c-0.784,0.27-1.31,1.005-1.31,1.835v7.62l2.705,4.116
		c0.193,0.294,0.295,0.636,0.295,0.986v14.746H30.72z M30.72,60.922"/>
	<path fill="none" stroke="#000000" stroke-width="2" stroke-miterlimit="10" d="M16.423,69.407
		c0.799,8.459,7.493,8.465,11.525,8.465c4.034,0,10.727-0.006,11.527-8.465H16.423z M16.423,69.407"/>
	<path fill="none" stroke="#000000" stroke-width="2" stroke-miterlimit="10" d="M27.949,19.202c-1.095,0-1.987,0.892-1.987,1.988
		c0,1.095,0.892,1.987,1.987,1.987c1.097,0,1.988-0.892,1.988-1.987C29.937,20.095,29.045,19.202,27.949,19.202L27.949,19.202z
		 M27.949,19.202"/>
	<path fill="none" stroke="#000000" stroke-width="2" stroke-miterlimit="10" d="M27.949,1.57
		c-14.354,0-26.032,11.679-26.032,26.032c0,7.551,4.028,12.562,7.923,17.409c1.221,1.519,2.484,3.091,3.62,4.736
		c1.261,1.824,1.972,6.789,2.377,11.175h5.75V46.713l-2.705-4.116c-0.193-0.294-0.295-0.636-0.295-0.986v-8.156
		c0-2.385,1.519-4.493,3.782-5.247c0.014-0.005,1.375-0.423,1.375-0.423c0.548-0.168,1.144-0.065,1.603,0.278l2.6,1.948l2.602-1.948
		c0.459-0.344,1.054-0.447,1.603-0.278c0,0,1.361,0.418,1.375,0.423c2.261,0.754,3.782,2.863,3.782,5.247v8.156
		c0,0.35-0.103,0.693-0.295,0.986l-2.706,4.116v14.209h5.75c0.407-4.387,1.118-9.352,2.379-11.175c1.136-1.645,2.4-3.216,3.62-4.736
		c3.895-4.847,7.923-9.858,7.923-17.409C53.981,13.249,42.303,1.57,27.949,1.57L27.949,1.57z M27.949,26.769
		c-3.076,0-5.578-2.503-5.578-5.578s2.503-5.578,5.578-5.578c3.076,0,5.579,2.503,5.579,5.578S31.025,26.769,27.949,26.769
		L27.949,26.769z M27.949,26.769"/>
</g>
</svg>
