<?xml version="1.0" encoding="utf-8"?>
<!-- Generator: Adobe Illustrator 17.0.0, SVG Export Plug-In . SVG Version: 6.00 Build 0)  -->
<!DOCTYPE svg PUBLIC "-//W3C//DTD SVG 1.1//EN" "http://www.w3.org/Graphics/SVG/1.1/DTD/svg11.dtd">
<svg version="1.1" id="Layer_1" xmlns="http://www.w3.org/2000/svg" xmlns:xlink="http://www.w3.org/1999/xlink" x="0px" y="0px"
	 width="79.876px" height="75.948px" viewBox="0 0 79.876 75.948" enable-background="new 0 0 79.876 75.948" xml:space="preserve">
<g>
	<path fill="none" stroke="#000000" stroke-width="2" stroke-miterlimit="10" d="M59.387,35.931
		c-0.857-1.193-1.218-2.689-0.959-4.197l0.515-3.004l-2.183-2.128c-0.034-0.033-0.063-0.067-0.097-0.1
		c-16.702,13.934-18.602,36.27-18.42,47.235c0.006,0.399,0.314,0.73,0.712,0.767c0.397,0.037,0.759-0.232,0.84-0.623
		C44.402,51.441,53.116,40.835,59.387,35.931L59.387,35.931z M59.387,35.931"/>
	<path fill="none" stroke="#000000" stroke-width="2" stroke-miterlimit="10" d="M26.63,20.947l-5.041,1.128l-1.928,4.793
		c-0.035,0.087-0.074,0.171-0.113,0.255c7.866,11.13,11.965,33.852,13.602,45.298c0.039,0.268,0.278,0.461,0.548,0.443
		c0.271-0.018,0.482-0.242,0.483-0.513c0.2-24.687-3.577-41.159-7.388-51.445C26.739,20.919,26.686,20.935,26.63,20.947
		L26.63,20.947z M26.63,20.947"/>
	<path fill="none" stroke="#000000" stroke-width="2" stroke-miterlimit="10" d="M61.102,60.92l-0.714-0.983
		c-0.577-0.795-0.922-1.7-1.033-2.631c-5.498,1.468-13.769,5.219-16.412,14.709c-0.143,0.513,0.106,1.053,0.587,1.279
		c0.482,0.226,1.057,0.069,1.359-0.368c2.884-4.182,8.067-9.705,15.798-10.826c0.004-0.012,0.007-0.024,0.011-0.037L61.102,60.92z
		 M61.102,60.92"/>
	<path fill="none" stroke="#000000" stroke-width="2" stroke-miterlimit="10" d="M21.785,51.336
		c-0.503,0.703-1.172,1.294-1.976,1.713l-1.077,0.56l-0.149,1.205c-0.045,0.364-0.127,0.714-0.237,1.052
		c4.617,5.215,8.019,12.377,10.075,17.52c0.138,0.345,0.514,0.53,0.872,0.43c0.357-0.102,0.581-0.454,0.519-0.822
		C27.991,62.247,24.808,55.515,21.785,51.336L21.785,51.336z M21.785,51.336"/>
	<g>
		<path fill="none" stroke="#000000" stroke-width="2" stroke-miterlimit="10" d="M64.315,26.984l-0.96,5.595
			c-0.039,0.223,0.053,0.448,0.236,0.581c0.103,0.074,0.226,0.112,0.349,0.112c0.094,0,0.189-0.022,0.276-0.067l5.025-2.643
			l5.025,2.643c0.087,0.045,0.182,0.067,0.277,0.067c0.122,0,0.245-0.038,0.348-0.112c0.183-0.133,0.275-0.358,0.237-0.581
			l-0.961-5.595l4.066-3.964c0.161-0.157,0.22-0.393,0.15-0.608c-0.071-0.215-0.256-0.371-0.48-0.404l-5.618-0.815l-2.512-5.092
			c-0.1-0.203-0.307-0.331-0.533-0.331c-0.226,0-0.432,0.128-0.532,0.331l-2.512,5.092l-5.618,0.815
			c-0.223,0.033-0.41,0.189-0.48,0.404c-0.069,0.215-0.011,0.451,0.15,0.608L64.315,26.984z M64.315,26.984"/>
		<path fill="none" stroke="#000000" stroke-width="2" stroke-miterlimit="10" d="M25.539,16.067
			c0.221-0.049,0.393-0.22,0.447-0.439c0.054-0.218-0.022-0.449-0.195-0.594l-5.978-5.001l0.731-7.759
			c0.021-0.225-0.087-0.443-0.279-0.562c-0.095-0.059-0.203-0.088-0.311-0.088c-0.109,0-0.219,0.03-0.315,0.09l-6.604,4.14
			L5.88,2.76C5.804,2.728,5.724,2.711,5.644,2.711c-0.138,0-0.275,0.049-0.383,0.142C5.088,2.999,5.014,3.23,5.069,3.449
			l1.896,7.559l-5.153,5.849c-0.149,0.17-0.189,0.409-0.103,0.618c0.085,0.209,0.282,0.35,0.508,0.366l7.776,0.532l3.969,6.708
			c0.107,0.181,0.303,0.291,0.51,0.291l0.047-0.001c0.225-0.017,0.42-0.161,0.505-0.37l2.909-7.23L25.539,16.067z M25.539,16.067"/>
	</g>
	<path fill="none" stroke="#000000" stroke-width="2" stroke-miterlimit="10" d="M77.231,58.571
		c-0.033-0.223-0.189-0.409-0.404-0.478l-3.655-1.187l-1.095-3.684c-0.065-0.216-0.247-0.377-0.469-0.415
		c-0.033-0.006-0.067-0.008-0.1-0.008c-0.188,0-0.368,0.089-0.48,0.244l-2.258,3.11l-3.842-0.098h-0.015
		c-0.22,0-0.423,0.122-0.525,0.318c-0.105,0.2-0.088,0.442,0.045,0.625l2.259,3.108l-1.279,3.625
		c-0.076,0.213-0.023,0.449,0.134,0.612c0.113,0.116,0.267,0.179,0.425,0.179c0.063,0,0.123-0.01,0.184-0.029l3.654-1.189
		l3.052,2.336c0.105,0.081,0.233,0.122,0.36,0.122c0.09,0,0.179-0.019,0.263-0.061c0.203-0.1,0.331-0.307,0.33-0.532l-0.001-3.843
		l3.165-2.179C77.166,59.018,77.264,58.795,77.231,58.571L77.231,58.571z M77.231,58.571"/>
	<path fill="none" stroke="#000000" stroke-width="2" stroke-miterlimit="10" d="M17.502,48.613c0.2-0.104,0.325-0.313,0.32-0.538
		c-0.005-0.226-0.137-0.43-0.342-0.525l-3.481-1.629l-0.633-3.789c-0.038-0.223-0.198-0.405-0.414-0.471
		c-0.056-0.017-0.115-0.024-0.171-0.024c-0.162,0-0.32,0.066-0.434,0.188l-2.624,2.808l-3.8-0.569
		c-0.029-0.005-0.058-0.007-0.088-0.007c-0.193,0-0.376,0.094-0.487,0.255c-0.129,0.186-0.142,0.429-0.032,0.626L7.175,48.3
		l-1.716,3.438c-0.1,0.203-0.078,0.444,0.058,0.624c0.113,0.15,0.289,0.234,0.473,0.234c0.038,0,0.076-0.002,0.113-0.01l3.772-0.73
		l2.741,2.694c0.112,0.111,0.263,0.171,0.416,0.171c0.066,0,0.131-0.011,0.195-0.033c0.213-0.074,0.365-0.263,0.393-0.487
		l0.473-3.815L17.502,48.613z M17.502,48.613"/>
	<path fill="none" stroke="#000000" stroke-width="2" stroke-miterlimit="10" d="M42.722,16.448l-0.462-1.123l-1.187-0.256
		c-0.886-0.192-1.687-0.586-2.357-1.132c-1.913,5.087-3.252,12.957-1.843,24.794c0.076,0.637,1.005,0.63,1.066-0.008
		c0.52-5.491,1.863-14.37,5.29-21.318C43.032,17.106,42.861,16.787,42.722,16.448L42.722,16.448z M42.722,16.448"/>
	<path fill="none" stroke="#000000" stroke-width="2" stroke-miterlimit="10" d="M44.414,2.839l0.388,3.824l-2.93,2.487
		c-0.172,0.146-0.247,0.377-0.192,0.597c0.055,0.218,0.229,0.387,0.45,0.436l3.756,0.812l1.46,3.555
		c0.085,0.209,0.283,0.352,0.508,0.366c0.013,0.001,0.027,0.003,0.042,0.003c0.21,0,0.405-0.113,0.513-0.296l1.933-3.32l3.833-0.29
		c0.225-0.017,0.421-0.16,0.506-0.37c0.084-0.21,0.042-0.449-0.109-0.618l-2.561-2.865l0.908-3.733
		c0.054-0.22-0.022-0.45-0.195-0.596C52.615,2.738,52.48,2.69,52.343,2.69c-0.081,0-0.162,0.017-0.239,0.051l-3.517,1.55
		l-3.27-2.018c-0.095-0.059-0.204-0.088-0.311-0.088c-0.11,0-0.219,0.029-0.315,0.091C44.498,2.396,44.392,2.613,44.414,2.839
		L44.414,2.839z M44.414,2.839"/>
</g>
</svg>
