<?xml version="1.0" encoding="utf-8"?>
<!-- Generator: Adobe Illustrator 17.0.0, SVG Export Plug-In . SVG Version: 6.00 Build 0)  -->
<!DOCTYPE svg PUBLIC "-//W3C//DTD SVG 1.1//EN" "http://www.w3.org/Graphics/SVG/1.1/DTD/svg11.dtd">
<svg version="1.1" id="Layer_1" xmlns="http://www.w3.org/2000/svg" xmlns:xlink="http://www.w3.org/1999/xlink" x="0px" y="0px"
	 width="61.314px" height="73.472px" viewBox="0 0 61.314 73.472" enable-background="new 0 0 61.314 73.472" xml:space="preserve">
<g>
	<path fill="none" stroke="#000000" stroke-width="2" stroke-miterlimit="10" d="M59.324,13.779c0.278,0.69-0.104,1.255-0.847,1.255
		H2.934c-0.745,0-1.142-0.57-0.882-1.268L6.138,2.765c0.259-0.698,1.081-1.269,1.825-1.269h45.057c0.745,0,1.581,0.565,1.859,1.255
		L59.324,13.779z M59.324,13.779"/>
	<path fill="none" stroke="#000000" stroke-width="2" stroke-miterlimit="10" d="M1.58,21.942c0,2.71,2.196,4.906,4.906,4.906
		c2.04,0,3.789-1.245,4.529-3.016c0.147-0.351,0.486-0.346,0.633,0.007c0.742,1.767,2.489,3.009,4.525,3.009
		c2.046,0,3.799-1.252,4.535-3.033c0.143-0.345,0.467-0.374,0.602-0.039c0.727,1.8,2.49,3.071,4.551,3.071s3.824-1.271,4.551-3.071
		c0.135-0.335,0.451-0.335,0.587,0c0.726,1.8,2.49,3.071,4.55,3.071c2.061,0,3.824-1.271,4.55-3.071
		c0.136-0.335,0.452-0.335,0.587,0c0.727,1.8,2.49,3.071,4.551,3.071s3.824-1.27,4.55-3.071c0.135-0.334,0.452-0.334,0.586,0
		c0.727,1.8,2.489,3.071,4.551,3.071c2.71,0,4.906-2.196,4.906-4.906v-2.074c0,0,0-0.968-1.023-0.968H2.937
		c-1.358,0-1.358,1.006-1.358,1.006V21.942z M1.58,21.942"/>
	<path fill="none" stroke="#000000" stroke-width="2" stroke-miterlimit="10" d="M58.407,67.574c0-0.001,0-0.002,0-0.002V48.117
		c0-1.18-0.966-2.146-2.146-2.146H5.148c-1.18,0-2.146,0.966-2.146,2.146v20.31c0,2.094,1.698,3.791,3.791,3.791
		c1.436,0,2.681-0.799,3.324-1.976c0.091-0.168,0.157-0.526,1.069-0.526h39.096c0.858,0,1.017,0.354,1.106,0.52
		c0.642,1.18,1.89,1.983,3.327,1.983c2.094,0,3.69-1.698,3.69-3.791C58.407,68.134,58.407,68.059,58.407,67.574L58.407,67.574z
		 M58.407,67.574"/>
	<path fill="none" stroke="#000000" stroke-width="2" stroke-miterlimit="10" d="M12.933,30.183
		c-0.025-0.35-0.316-0.629-0.672-0.629h-1.954c-0.373,0-0.677,0.305-0.677,0.677v11.221c0,0.373,0.305,0.677,0.677,0.677h1.954
		c0.356,0,0.647-0.279,0.672-0.628c0.002-0.006,0.005-0.012,0.005-0.018V30.201C12.938,30.195,12.935,30.189,12.933,30.183
		L12.933,30.183z M12.933,30.183"/>
	<path fill="none" stroke="#000000" stroke-width="2" stroke-miterlimit="10" d="M51.959,30.183
		c-0.025-0.35-0.316-0.629-0.671-0.629h-1.955c-0.372,0-0.677,0.305-0.677,0.677v11.221c0,0.373,0.305,0.677,0.677,0.677h1.955
		c0.355,0,0.646-0.279,0.671-0.628c0.002-0.006,0.005-0.012,0.005-0.018V30.201C51.965,30.195,51.961,30.189,51.959,30.183
		L51.959,30.183z M51.959,30.183"/>
</g>
</svg>
