<?xml version="1.0" encoding="utf-8"?>
<!-- Generator: Adobe Illustrator 17.0.0, SVG Export Plug-In . SVG Version: 6.00 Build 0)  -->
<!DOCTYPE svg PUBLIC "-//W3C//DTD SVG 1.1//EN" "http://www.w3.org/Graphics/SVG/1.1/DTD/svg11.dtd">
<svg version="1.1" id="Layer_1" xmlns="http://www.w3.org/2000/svg" xmlns:xlink="http://www.w3.org/1999/xlink" x="0px" y="0px"
	 width="70.169px" height="75.744px" viewBox="0 0 70.169 75.744" enable-background="new 0 0 70.169 75.744" xml:space="preserve">
<g>
	<g>
		<path fill="none" stroke="#000000" stroke-width="2" stroke-miterlimit="10" d="M19.386,42.185c0,1.919-1.556,3.475-3.475,3.475
			c-1.919,0-3.475-1.556-3.475-3.475c0-1.918,1.556-3.474,3.475-3.474C17.83,38.711,19.386,40.267,19.386,42.185L19.386,42.185z
			 M19.386,42.185"/>
		<path fill="none" stroke="#000000" stroke-width="2" stroke-miterlimit="10" d="M68.47,44.623
			c0-11.546-8.225-22.732-25.439-18.727c-0.705,0-0.616-0.518-0.436-0.782c1.962-2.886,2.537-6.19,1.659-9.706
			c-1.538-6.149-6.852-8.551-10.731-10.304c-1.826-0.824-3.21-1.487-3.858-2.135c-0.277-0.279-0.763-0.839-1.374-0.839l-2.237-0.22
			c-0.695,0-0.728,0.622-0.695,0.911c0.358,3.074,3.498,4.492,6.545,5.869c3.667,1.657,7.458,3.37,8.534,7.674
			c1.326,5.304-2.485,8.611-5.045,10.179c-0.404,0.248-1.156,0.621-1.597,0.59c-1.23-0.047-1.899-0.157-2.598-0.375
			C12.354,20.89,1.509,32.486,1.509,44.623c0,5.122-0.035,10.048,0.132,14.364c0.346,8.946,1.554,15.268,5.716,15.268
			c5.039,0,9.161-9.532,18.129-18.501c3.034-3.035,15.973-3.035,19.007,0c10.933,10.933,12.191,18.501,18.129,18.501
			c4.195,0,5.389-6.201,5.723-15.268C68.504,54.717,68.47,49.813,68.47,44.623L68.47,44.623z M15.911,50.249
			c-4.454,0-8.063-3.61-8.063-8.065c0-4.453,3.61-8.063,8.063-8.063c4.453,0,8.065,3.61,8.065,8.063
			C23.975,46.639,20.364,50.249,15.911,50.249L15.911,50.249z M36.728,48.61h-3.475c-0.815,0-1.475-0.66-1.475-1.475
			c0-0.814,0.66-1.475,1.475-1.475h3.475c0.814,0,1.475,0.661,1.475,1.475C38.203,47.95,37.542,48.61,36.728,48.61L36.728,48.61z
			 M36.728,42.103h-3.475c-0.815,0-1.475-0.66-1.475-1.475c0-0.815,0.66-1.475,1.475-1.475h3.475c0.814,0,1.475,0.66,1.475,1.475
			C38.203,41.443,37.542,42.103,36.728,42.103L36.728,42.103z M36.728,35.596h-3.475c-0.815,0-1.475-0.66-1.475-1.475
			c0-0.815,0.66-1.475,1.475-1.475h3.475c0.814,0,1.475,0.66,1.475,1.475C38.203,34.936,37.542,35.596,36.728,35.596L36.728,35.596z
			 M61.903,43.571c0,0.65-0.531,1.181-1.18,1.181h-2.74c-0.648,0-1.18,0.178-1.18,0.397v3.522c0,0.648-0.531,1.18-1.181,1.18h-2.739
			c-0.65,0-1.181-0.531-1.181-1.18v-3.522c0-0.219-0.53-0.397-1.18-0.397h-2.739c-0.648,0-1.18-0.531-1.18-1.181v-2.739
			c0-0.65,0.531-1.181,1.18-1.181h2.739c0.65,0,1.18-0.531,1.18-1.18v-2.74c0-0.648,0.532-1.18,1.181-1.18h2.739
			c0.65,0,1.181,0.531,1.181,1.18v2.74c0,0.648,0.531,1.18,1.18,1.18h2.74c0.648,0,1.18,0.531,1.18,1.181V43.571z M61.903,43.571"/>
	</g>
</g>
</svg>
