<svg xmlns="http://www.w3.org/2000/svg" viewBox="0 0 79.2 64.08"><defs><style>.cls-1{fill:#fff;}</style></defs><title>Asset 3</title><g id="Layer_2" data-name="Layer 2"><g id="Layer_1-2" data-name="Layer 1"><path class="cls-1" d="M.24,64.32q0-32,0-64.08h79.2q0,32,0,64.08ZM27,11.24a10.47,10.47,0,0,0-2.51,1.14A35.6,35.6,0,0,0,21,15.83c-1.64,1.78-1.78,4.11-.43,5.61,1.14,1.25,1.1,1.62-.19,2.65a33.79,33.79,0,0,0-7,7.76,4.13,4.13,0,0,0,0,5.11,42.13,42.13,0,0,0,5.12,5.15,2.78,2.78,0,0,0,3.65.11,13.2,13.2,0,0,0,2.15-2.36c1.82-2.3,3.58-4.64,5.4-6.93.85-1.07,1.29-1,2.21-.12l22,22c1.87,1.87,3.83,1.89,5.73,0,.83-.8,1.59-1.7,2.5-2.42,2.62-2.08,2.94-3.91,1-6.63a7.86,7.86,0,0,0-1-1.07c-3.51-3.44-7.05-6.84-10.53-10.31s-6.88-7-10.31-10.53c-1.63-1.67-1.71-1.22.28-2.74,2.77-2.12,5.54-4.24,8.26-6.44,1.82-1.48,1.89-3.56.2-4.83a3.83,3.83,0,0,0-4-.72c-4.2,1.88-8.39,3.77-12.53,5.79-.95.46-1.26.36-1.92-.41C30.42,13.1,29.35,11.33,27,11.24Z" transform="translate(-0.24 -0.24)"/><path d="M27,11.24c2.38.09,3.45,1.86,4.65,3.27.65.77,1,.87,1.92.41,4.13-2,8.33-3.91,12.53-5.79a3.83,3.83,0,0,1,4,.72c1.68,1.27,1.62,3.35-.2,4.83-2.71,2.19-5.48,4.32-8.26,6.44-2,1.52-1.91,1.07-.28,2.74,3.43,3.52,6.84,7.06,10.31,10.53s7,6.88,10.53,10.31a7.86,7.86,0,0,1,1,1.07c1.91,2.73,1.59,4.56-1,6.63-.9.72-1.66,1.61-2.5,2.42-1.91,1.84-3.86,1.82-5.73,0l-22-22c-.93-.93-1.36-.94-2.21.12-1.82,2.29-3.58,4.63-5.4,6.93a13.2,13.2,0,0,1-2.15,2.36,2.78,2.78,0,0,1-3.65-.11A42.13,42.13,0,0,1,13.36,37a4.13,4.13,0,0,1,0-5.11,33.79,33.79,0,0,1,7-7.76c1.29-1,1.33-1.4.19-2.65-1.36-1.5-1.22-3.83.43-5.61a35.6,35.6,0,0,1,3.5-3.45A10.47,10.47,0,0,1,27,11.24Zm29.8,41.67c1.1-1,2-1.9,2.94-2.79,1.1-1.1,1.09-1.68,0-2.81L38.2,25.58c-.24-.25-.51-.46-.82-.74-1.13,1.19-2.18,2.33-3.27,3.45a1.11,1.11,0,0,0,0,1.77c.28.29.54.59.82.87q8.78,8.76,17.55,17.52C53.92,49.87,55.29,51.37,56.77,52.91ZM20.59,39a112.59,112.59,0,0,1,25-25.75,2.77,2.77,0,0,0-1.39.25c-1.57.77-3.12,1.6-4.69,2.38C33.78,18.74,28.11,21.72,23.3,26a84.26,84.26,0,0,0-6.53,7,1.72,1.72,0,0,0-.11,2.5C17.89,36.68,19.24,37.8,20.59,39Zm8.79-21.81c-.58-.64-1-1.12-1.46-1.64a1,1,0,0,0-1.62-.1c-.71.69-1.39,1.43-2.08,2.15-1.28,1.33-1.25,1.6.37,2.74Z" transform="translate(-0.24 -0.24)"/><path class="cls-1" d="M56.77,52.91c-1.48-1.55-2.85-3-4.29-4.48q-8.76-8.77-17.55-17.52c-.28-.28-.55-.58-.82-.87a1.11,1.11,0,0,1,0-1.77c1.09-1.11,2.14-2.25,3.27-3.45.31.28.58.49.82.74L59.67,47.31c1.12,1.13,1.14,1.71,0,2.81C58.81,51,57.87,51.87,56.77,52.91Z" transform="translate(-0.24 -0.24)"/><path class="cls-1" d="M20.59,39c-1.36-1.23-2.7-2.35-3.94-3.59a1.72,1.72,0,0,1,.11-2.5,84.26,84.26,0,0,1,6.53-7c4.82-4.26,10.48-7.24,16.21-10.07,1.57-.78,3.12-1.6,4.69-2.38a2.77,2.77,0,0,1,1.39-.25A112.59,112.59,0,0,0,20.59,39Z" transform="translate(-0.24 -0.24)"/><path class="cls-1" d="M29.38,17.21l-4.79,3.15C23,19.22,22.94,19,24.22,17.62c.69-.72,1.36-1.46,2.08-2.15a1,1,0,0,1,1.62.1C28.33,16.09,28.8,16.57,29.38,17.21Z" transform="translate(-0.24 -0.24)"/></g></g></svg>