<?xml version="1.0" encoding="utf-8"?>
<!-- Generator: Adobe Illustrator 17.0.0, SVG Export Plug-In . SVG Version: 6.00 Build 0)  -->
<!DOCTYPE svg PUBLIC "-//W3C//DTD SVG 1.1//EN" "http://www.w3.org/Graphics/SVG/1.1/DTD/svg11.dtd">
<svg version="1.1" id="Layer_1" xmlns="http://www.w3.org/2000/svg" xmlns:xlink="http://www.w3.org/1999/xlink" x="0px" y="0px"
	 width="22.388px" height="21.079px" viewBox="0 0 22.388 21.079" enable-background="new 0 0 22.388 21.079" xml:space="preserve">
<g>
	<path d="M16.838,10.008c-0.25-0.348-0.355-0.785-0.28-1.224l0.15-0.876l-0.637-0.621c-0.01-0.01-0.019-0.02-0.028-0.029
		c-4.872,4.065-5.426,10.58-5.373,13.779c0.002,0.116,0.092,0.213,0.208,0.224c0.116,0.011,0.222-0.068,0.245-0.182
		C12.467,14.533,15.009,11.439,16.838,10.008L16.838,10.008z M16.838,10.008"/>
	<path d="M7.283,5.637l-1.47,0.329L5.25,7.364c-0.01,0.025-0.022,0.05-0.033,0.074c2.295,3.247,3.49,9.875,3.968,13.214
		c0.011,0.078,0.081,0.135,0.16,0.129c0.079-0.005,0.141-0.071,0.141-0.15C9.544,13.43,8.442,8.625,7.331,5.625
		C7.314,5.629,7.299,5.633,7.283,5.637L7.283,5.637z M7.283,5.637"/>
	<path d="M17.339,17.298l-0.208-0.287c-0.168-0.232-0.269-0.496-0.301-0.767c-1.604,0.428-4.017,1.522-4.788,4.291
		c-0.042,0.15,0.031,0.307,0.171,0.373c0.141,0.066,0.308,0.02,0.396-0.107c0.841-1.22,2.353-2.831,4.608-3.158
		c0.001-0.004,0.002-0.007,0.003-0.011L17.339,17.298z M17.339,17.298"/>
	<path d="M5.869,14.502c-0.147,0.205-0.342,0.378-0.577,0.5l-0.314,0.163l-0.043,0.352c-0.013,0.106-0.037,0.208-0.069,0.307
		c1.347,1.521,2.339,3.611,2.939,5.111c0.04,0.101,0.15,0.155,0.254,0.125c0.104-0.03,0.17-0.133,0.151-0.24
		C7.68,17.685,6.751,15.721,5.869,14.502L5.869,14.502z M5.869,14.502"/>
	<g>
		<path d="M18.276,7.398l-0.28,1.632c-0.011,0.065,0.015,0.131,0.069,0.17c0.03,0.022,0.066,0.033,0.102,0.033
			c0.027,0,0.055-0.006,0.081-0.02l1.466-0.771l1.466,0.771c0.025,0.013,0.053,0.02,0.081,0.02c0.036,0,0.072-0.011,0.101-0.033
			c0.053-0.039,0.08-0.104,0.069-0.17l-0.28-1.632l1.186-1.156c0.047-0.046,0.064-0.115,0.044-0.177
			c-0.021-0.063-0.075-0.108-0.14-0.118l-1.639-0.238l-0.733-1.485c-0.029-0.059-0.089-0.097-0.155-0.097
			c-0.066,0-0.126,0.037-0.155,0.097l-0.733,1.485l-1.639,0.238c-0.065,0.01-0.12,0.055-0.14,0.118
			c-0.02,0.063-0.003,0.131,0.044,0.177L18.276,7.398z M18.276,7.398"/>
		<path d="M6.965,4.213c0.064-0.014,0.115-0.064,0.13-0.128C7.11,4.022,7.088,3.954,7.038,3.912L5.294,2.453l0.213-2.263
			C5.513,0.124,5.482,0.06,5.426,0.026C5.398,0.008,5.367,0,5.335,0C5.303,0,5.271,0.009,5.243,0.026L3.316,1.234L1.23,0.331
			C1.208,0.322,1.184,0.317,1.161,0.317c-0.04,0-0.08,0.014-0.112,0.041c-0.051,0.043-0.072,0.11-0.056,0.174l0.553,2.205
			L0.043,4.444C0,4.493-0.012,4.563,0.013,4.624c0.025,0.061,0.082,0.102,0.148,0.107L2.43,4.886l1.158,1.957
			c0.031,0.053,0.088,0.085,0.149,0.085l0.014,0C3.815,6.922,3.872,6.88,3.897,6.819L4.746,4.71L6.965,4.213z M6.965,4.213"/>
	</g>
	<path d="M22.044,16.613c-0.01-0.065-0.055-0.119-0.118-0.14l-1.066-0.346l-0.319-1.075c-0.019-0.063-0.072-0.11-0.137-0.121
		c-0.01-0.002-0.02-0.002-0.029-0.002c-0.055,0-0.107,0.026-0.14,0.071l-0.659,0.907l-1.121-0.029h-0.004
		c-0.064,0-0.123,0.036-0.153,0.093c-0.031,0.058-0.026,0.129,0.013,0.182l0.659,0.907l-0.373,1.057
		c-0.022,0.062-0.007,0.131,0.039,0.178c0.033,0.034,0.078,0.052,0.124,0.052c0.018,0,0.036-0.003,0.054-0.008l1.066-0.347
		l0.89,0.682c0.031,0.024,0.068,0.036,0.105,0.036c0.026,0,0.052-0.006,0.077-0.018c0.059-0.029,0.097-0.089,0.096-0.155l0-1.121
		l0.923-0.636C22.025,16.743,22.053,16.678,22.044,16.613L22.044,16.613z M22.044,16.613"/>
	<path d="M4.62,13.707c0.058-0.03,0.095-0.091,0.093-0.157c-0.001-0.066-0.04-0.125-0.1-0.153l-1.016-0.475l-0.185-1.105
		c-0.011-0.065-0.058-0.118-0.121-0.137c-0.016-0.005-0.033-0.007-0.05-0.007c-0.047,0-0.093,0.019-0.127,0.055l-0.765,0.819
		L1.242,12.38c-0.009-0.001-0.017-0.002-0.026-0.002c-0.056,0-0.11,0.027-0.142,0.074c-0.038,0.054-0.041,0.125-0.009,0.183
		l0.542,0.981l-0.501,1.003c-0.029,0.059-0.023,0.13,0.017,0.182c0.033,0.044,0.084,0.068,0.138,0.068
		c0.011,0,0.022-0.001,0.033-0.003l1.1-0.213l0.8,0.786c0.033,0.032,0.077,0.05,0.121,0.05c0.019,0,0.038-0.003,0.057-0.01
		c0.062-0.022,0.106-0.077,0.115-0.142l0.138-1.113L4.62,13.707z M4.62,13.707"/>
	<path d="M11.977,4.325l-0.135-0.328l-0.346-0.075c-0.258-0.056-0.492-0.171-0.688-0.33c-0.558,1.484-0.949,3.78-0.538,7.233
		c0.022,0.186,0.293,0.184,0.311-0.002c0.152-1.602,0.543-4.192,1.543-6.219C12.068,4.517,12.018,4.424,11.977,4.325L11.977,4.325z
		 M11.977,4.325"/>
	<path d="M12.471,0.355l0.113,1.115l-0.855,0.725c-0.05,0.043-0.072,0.11-0.056,0.174c0.016,0.064,0.067,0.113,0.131,0.127
		l1.096,0.237l0.426,1.037c0.025,0.061,0.083,0.103,0.148,0.107c0.004,0,0.008,0.001,0.012,0.001c0.061,0,0.118-0.033,0.15-0.086
		L14.2,2.823l1.118-0.085c0.066-0.005,0.123-0.047,0.148-0.108c0.025-0.061,0.012-0.131-0.032-0.18l-0.747-0.836l0.265-1.089
		c0.016-0.064-0.006-0.131-0.057-0.174c-0.032-0.027-0.071-0.041-0.111-0.041c-0.024,0-0.047,0.005-0.07,0.015l-1.026,0.452
		L12.734,0.19c-0.028-0.017-0.06-0.026-0.091-0.026c-0.032,0-0.064,0.009-0.092,0.026C12.495,0.225,12.464,0.289,12.471,0.355
		L12.471,0.355z M12.471,0.355"/>
</g>
</svg>
