<?xml version="1.0" encoding="utf-8"?>
<!-- Generator: Adobe Illustrator 17.0.0, SVG Export Plug-In . SVG Version: 6.00 Build 0)  -->
<!DOCTYPE svg PUBLIC "-//W3C//DTD SVG 1.1//EN" "http://www.w3.org/Graphics/SVG/1.1/DTD/svg11.dtd">
<svg version="1.1" id="Layer_1" xmlns="http://www.w3.org/2000/svg" xmlns:xlink="http://www.w3.org/1999/xlink" x="0px" y="0px"
	 width="18.41px" height="17.029px" viewBox="0 0 18.41 17.029" enable-background="new 0 0 18.41 17.029" xml:space="preserve">
<g>
	<g>
		<g>
			<path d="M9.289,9.215c-1.213,0-2.348,0.532-3.122,1.445c0.774,0.913,1.909,1.445,3.122,1.445c1.213,0,2.348-0.532,3.122-1.445
				C11.637,9.748,10.502,9.215,9.289,9.215z M9.332,11.633c-0.508,0-0.92-0.412-0.92-0.92s0.412-0.92,0.92-0.92
				c0.508,0,0.92,0.412,0.92,0.92S9.84,11.633,9.332,11.633z"/>
		</g>
	</g>
</g>
<path d="M0,4.602v11.046c0,0.763,0.618,1.381,1.381,1.381h15.648c0.763,0,1.381-0.618,1.381-1.381V4.602H0z M13.625,10.966
	c-0.984,1.491-2.636,2.381-4.42,2.381c-1.784,0-3.436-0.89-4.42-2.381l-0.251-0.38l0.251-0.38c0.984-1.491,2.636-2.381,4.42-2.381
	c1.784,0,3.436,0.89,4.42,2.381l0.251,0.38L13.625,10.966z"/>
<path d="M17.029,0H1.381C0.618,0,0,0.618,0,1.381v1.841h18.41V1.381C18.41,0.618,17.791,0,17.029,0z M2.301,2.531
	c-0.508,0-0.92-0.412-0.92-0.92s0.412-0.92,0.92-0.92s0.92,0.412,0.92,0.92S2.81,2.531,2.301,2.531z M17.029,2.301H9.205V0.92h7.824
	V2.301z"/>
</svg>
