<?xml version="1.0" encoding="utf-8"?>
<!-- Generator: Adobe Illustrator 17.0.0, SVG Export Plug-In . SVG Version: 6.00 Build 0)  -->
<!DOCTYPE svg PUBLIC "-//W3C//DTD SVG 1.1//EN" "http://www.w3.org/Graphics/SVG/1.1/DTD/svg11.dtd">
<svg version="1.1" id="Layer_1" xmlns="http://www.w3.org/2000/svg" xmlns:xlink="http://www.w3.org/1999/xlink" x="0px" y="0px"
	 width="17.979px" height="20.034px" viewBox="0 0 17.979 20.034" enable-background="new 0 0 17.979 20.034" xml:space="preserve">
<g id="IQlYp2_1_">
	<g>
		<path d="M4.686,9.044c0-2.759,0-5.518,0-8.277c0-0.106-0.007-0.214,0.013-0.316c0.057-0.289,0.324-0.479,0.63-0.459
			c0.266,0.017,0.489,0.231,0.508,0.518C5.856,0.773,5.85,1.038,5.849,1.302c0,0.172,0.06,0.307,0.165,0.449
			C7.021,3.118,8.468,3.614,10.063,3.8c0.734,0.085,1.477,0.095,2.215,0.16c1.364,0.121,2.636,0.526,3.788,1.28
			c0.337,0.221,0.67,0.449,0.998,0.683c0.292,0.208,0.261,0.44-0.069,0.585c-0.876,0.386-1.754,0.766-2.626,1.159
			c-0.932,0.42-1.713,1.045-2.376,1.817c-0.424,0.493-0.862,0.969-1.401,1.341c-1.232,0.85-2.551,1.019-3.956,0.496
			c-0.105-0.039-0.209-0.082-0.315-0.119c-0.278-0.098-0.441,0.012-0.443,0.306c-0.004,0.602-0.002,1.204-0.002,1.806
			c0,1.284,0.001,2.567-0.001,3.851c0,0.131-0.017,0.263-0.025,0.394c-0.022,0.351-0.261,0.58-0.602,0.576
			c-0.319-0.004-0.555-0.247-0.56-0.596c-0.007-0.562-0.002-1.125-0.002-1.687C4.686,13.583,4.686,11.313,4.686,9.044z"/>
		<path d="M5.154,20.012c-0.917,0.002-1.875-0.212-2.821-0.49c-0.565-0.166-1.075-0.445-1.52-0.83
			c-1.108-0.956-1.079-2.379,0.063-3.296c0.643-0.516,1.384-0.816,2.186-0.973c0.213-0.042,0.419,0.109,0.434,0.327
			c0.013,0.184,0.025,0.378-0.02,0.552c-0.027,0.105-0.149,0.218-0.256,0.265c-0.38,0.168-0.773,0.304-1.158,0.463
			c-0.299,0.123-0.549,0.318-0.735,0.585c-0.213,0.305-0.214,0.639,0.003,0.942c0.276,0.386,0.677,0.604,1.101,0.783
			c0.665,0.279,1.37,0.392,2.08,0.463c1.112,0.111,2.204,0.013,3.265-0.355c0.494-0.172,0.929-0.445,1.311-0.8
			C9.43,17.33,9.46,16.987,9.18,16.608c-0.302-0.409-0.727-0.647-1.195-0.812C7.761,15.717,7.528,15.666,7.3,15.6
			c-0.234-0.068-0.311-0.175-0.306-0.419c0.003-0.125,0.003-0.25,0.007-0.375c0.008-0.243,0.23-0.411,0.494-0.352
			c0.815,0.183,1.58,0.475,2.217,1.042c0.417,0.371,0.677,0.822,0.735,1.383c0.078,0.753-0.172,1.376-0.737,1.875
			c-0.527,0.465-1.148,0.755-1.821,0.925C7.018,19.9,6.142,20.101,5.154,20.012z"/>
	</g>
</g>
</svg>
