<?xml version="1.0" encoding="utf-8"?>
<!-- Generator: Adobe Illustrator 17.0.0, SVG Export Plug-In . SVG Version: 6.00 Build 0)  -->
<!DOCTYPE svg PUBLIC "-//W3C//DTD SVG 1.1//EN" "http://www.w3.org/Graphics/SVG/1.1/DTD/svg11.dtd">
<svg version="1.1" id="Layer_1" xmlns="http://www.w3.org/2000/svg" xmlns:xlink="http://www.w3.org/1999/xlink" x="0px" y="0px"
	 width="15.188px" height="22.258px" viewBox="0 0 15.188 22.258" enable-background="new 0 0 15.188 22.258" xml:space="preserve">
<g>
	<path d="M4.176,18.891h6.835c0.011-0.197,0.026-0.427,0.043-0.68H4.133C4.151,18.464,4.165,18.695,4.176,18.891L4.176,18.891z
		 M4.176,18.891"/>
	<path d="M8.402,17.314v-4.302c0-0.102,0.03-0.202,0.086-0.288l0.789-1.201V9.301c0-0.242-0.153-0.457-0.382-0.535L8.767,8.727
		L7.908,9.37C7.722,9.51,7.466,9.51,7.28,9.37L6.42,8.727L6.293,8.766C6.064,8.845,5.911,9.059,5.911,9.301v2.223L6.7,12.725
		c0.056,0.086,0.086,0.185,0.086,0.288v4.302H8.402z M8.402,17.314"/>
	<path d="M4.232,19.789c0.233,2.468,2.186,2.469,3.362,2.469c1.177,0,3.129-0.002,3.363-2.469H4.232z M4.232,19.789"/>
	<path d="M7.594,5.144c-0.319,0-0.58,0.26-0.58,0.58c0,0.319,0.26,0.58,0.58,0.58c0.32,0,0.58-0.26,0.58-0.58
		C8.174,5.404,7.914,5.144,7.594,5.144L7.594,5.144z M7.594,5.144"/>
	<path d="M7.594,0C3.406,0,0,3.407,0,7.594c0,2.203,1.175,3.665,2.311,5.078c0.356,0.443,0.725,0.902,1.056,1.381
		c0.368,0.532,0.575,1.98,0.694,3.26h1.677v-4.145l-0.789-1.201c-0.056-0.086-0.086-0.186-0.086-0.288V9.301
		c0-0.696,0.443-1.311,1.103-1.531c0.004-0.001,0.401-0.123,0.401-0.123c0.16-0.049,0.334-0.019,0.468,0.081l0.759,0.568
		l0.759-0.568c0.134-0.1,0.307-0.13,0.468-0.081c0,0,0.397,0.122,0.401,0.123c0.66,0.22,1.103,0.835,1.103,1.531v2.379
		c0,0.102-0.03,0.202-0.086,0.288L9.45,13.169v4.145h1.677c0.119-1.28,0.326-2.728,0.694-3.26c0.332-0.48,0.7-0.938,1.056-1.381
		c1.136-1.414,2.311-2.876,2.311-5.078C15.188,3.407,11.781,0,7.594,0L7.594,0z M7.594,7.351c-0.897,0-1.627-0.73-1.627-1.627
		s0.73-1.627,1.627-1.627c0.897,0,1.627,0.73,1.627,1.627S8.491,7.351,7.594,7.351L7.594,7.351z M7.594,7.351"/>
</g>
</svg>
