<?xml version="1.0" encoding="utf-8"?>
<!-- Generator: Adobe Illustrator 17.0.0, SVG Export Plug-In . SVG Version: 6.00 Build 0)  -->
<!DOCTYPE svg PUBLIC "-//W3C//DTD SVG 1.1//EN" "http://www.w3.org/Graphics/SVG/1.1/DTD/svg11.dtd">
<svg version="1.1" id="Layer_1" xmlns="http://www.w3.org/2000/svg" xmlns:xlink="http://www.w3.org/1999/xlink" x="0px" y="0px"
	 width="19.535px" height="21.104px" viewBox="0 0 19.535 21.104" enable-background="new 0 0 19.535 21.104" xml:space="preserve">
<g>
	<g>
		<path d="M5.216,11.749c0,0.56-0.454,1.014-1.014,1.014c-0.56,0-1.014-0.454-1.014-1.014c0-0.56,0.454-1.013,1.014-1.013
			C4.762,10.736,5.216,11.19,5.216,11.749L5.216,11.749z M5.216,11.749"/>
		<path d="M19.534,12.46c0-3.368-2.399-6.631-7.421-5.463c-0.206,0-0.18-0.151-0.127-0.228c0.572-0.842,0.74-1.806,0.484-2.831
			c-0.449-1.794-1.999-2.494-3.13-3.006c-0.533-0.24-0.936-0.434-1.126-0.623C8.134,0.228,7.992,0.064,7.813,0.064L7.161,0
			C6.958,0,6.948,0.182,6.958,0.266c0.105,0.897,1.02,1.31,1.909,1.712c1.07,0.483,2.176,0.983,2.489,2.239
			c0.387,1.547-0.725,2.512-1.472,2.969C9.767,7.258,9.548,7.367,9.419,7.357C9.061,7.344,8.865,7.312,8.661,7.248
			C3.164,5.537,0.001,8.92,0.001,12.46c0,1.494-0.01,2.931,0.038,4.19c0.101,2.61,0.453,4.454,1.667,4.454
			c1.47,0,2.672-2.781,5.289-5.397c0.885-0.885,4.66-0.885,5.545,0c3.189,3.189,3.556,5.397,5.289,5.397
			c1.224,0,1.572-1.809,1.67-4.454C19.544,15.405,19.534,13.974,19.534,12.46L19.534,12.46z M4.202,14.102
			c-1.299,0-2.352-1.053-2.352-2.353c0-1.299,1.053-2.352,2.352-2.352c1.299,0,2.353,1.053,2.353,2.352
			C6.555,13.049,5.501,14.102,4.202,14.102L4.202,14.102z M10.275,13.623H9.261c-0.238,0-0.43-0.193-0.43-0.43
			c0-0.237,0.193-0.43,0.43-0.43h1.014c0.237,0,0.43,0.193,0.43,0.43C10.705,13.431,10.512,13.623,10.275,13.623L10.275,13.623z
			 M10.275,11.725H9.261c-0.238,0-0.43-0.193-0.43-0.43s0.193-0.43,0.43-0.43h1.014c0.237,0,0.43,0.193,0.43,0.43
			S10.512,11.725,10.275,11.725L10.275,11.725z M10.275,9.827H9.261c-0.238,0-0.43-0.193-0.43-0.43c0-0.238,0.193-0.43,0.43-0.43
			h1.014c0.237,0,0.43,0.193,0.43,0.43C10.705,9.635,10.512,9.827,10.275,9.827L10.275,9.827z M17.618,12.153
			c0,0.189-0.155,0.344-0.344,0.344h-0.799c-0.189,0-0.344,0.052-0.344,0.116v1.027c0,0.189-0.155,0.344-0.344,0.344h-0.799
			c-0.189,0-0.344-0.155-0.344-0.344v-1.027c0-0.064-0.155-0.116-0.344-0.116H13.5c-0.189,0-0.344-0.155-0.344-0.344v-0.799
			c0-0.189,0.155-0.344,0.344-0.344h0.799c0.189,0,0.344-0.155,0.344-0.344V9.867c0-0.189,0.155-0.344,0.344-0.344h0.799
			c0.189,0,0.344,0.155,0.344,0.344v0.799c0,0.189,0.155,0.344,0.344,0.344h0.799c0.189,0,0.344,0.155,0.344,0.344V12.153z
			 M17.618,12.153"/>
	</g>
</g>
</svg>
